<svg width="20" height="20" viewBox="0 0 20 20" fill="none" xmlns="http://www.w3.org/2000/svg">
<path d="M18 4.375C18 3.06334 16.9367 2 15.625 2H4.375C3.06332 2 2 3.06334 2 4.375V15.625C2 16.9367 3.06332 18 4.375 18H15.625C16.9367 18 18 16.9367 18 15.625V4.375ZM12.4746 6.11133C12.8651 5.72081 13.4981 5.7208 13.8887 6.11133C14.2792 6.50185 14.2792 7.13487 13.8887 7.52539L11.4141 10L13.8887 12.4746C14.2792 12.8651 14.2792 13.4981 13.8887 13.8887C13.4981 14.2792 12.8651 14.2792 12.4746 13.8887L10 11.4141L7.52539 13.8887C7.13488 14.2792 6.50185 14.2792 6.11133 13.8887C5.72081 13.4981 5.7208 12.8651 6.11133 12.4746L8.58594 10L6.11133 7.52539C5.72081 7.13487 5.72082 6.50185 6.11133 6.11133C6.50185 5.7208 7.13487 5.72081 7.52539 6.11133L10 8.58594L12.4746 6.11133ZM20 15.625C20 18.0412 18.0412 20 15.625 20H4.375C1.95876 20 0 18.0412 0 15.625V4.375C0 1.95876 1.95876 0 4.375 0H15.625C18.0412 0 20 1.95876 20 4.375V15.625Z" fill="#FF5B04"/>
</svg>
