<svg width="22" height="26" viewBox="0 0 22 26" fill="none" xmlns="http://www.w3.org/2000/svg">
<path d="M10.4854 0.142507C10.802 -0.0475024 11.198 -0.0475024 11.5146 0.142507L21.5146 6.14251C21.8158 6.32325 22 6.64872 22 6.99993V18.9999C22 19.3511 21.8158 19.6766 21.5146 19.8574L11.5146 25.8574C11.198 26.0474 10.802 26.0474 10.4854 25.8574L0.485352 19.8574C0.184231 19.6766 0 19.3511 0 18.9999V6.99993C0 6.64872 0.184231 6.32325 0.485352 6.14251L10.4854 0.142507ZM2 18.4335L10 23.2333V14.2978L2 9.18157V18.4335ZM12 14.2978V23.2333L20 18.4335V9.18157L12 14.2978ZM2.6123 7.19817L11 12.5615L19.3867 7.19817L11 2.16594L2.6123 7.19817Z" fill="#FF5B04"/>
</svg>
