<svg width="25" height="25" viewBox="0 0 25 25" fill="none" xmlns="http://www.w3.org/2000/svg">
<path d="M12.5 24.3521C19.1274 24.3521 24.5 19.0126 24.5 12.4261C24.5 5.83948 19.1274 0.5 12.5 0.5C5.87258 0.5 0.5 5.83948 0.5 12.4261C0.5 19.0126 5.87258 24.3521 12.5 24.3521Z" stroke="white" stroke-miterlimit="10"/>
<mask id="path-2-inside-1_610_1423" fill="white">
<path d="M7.4696 17.2798L7.40039 17.2822L7.40676 17.4618L7.47597 17.4593L7.4696 17.2798Z"/>
</mask>
<path d="M7.4696 17.2798L7.40039 17.2822L7.40676 17.4618L7.47597 17.4593L7.4696 17.2798Z" fill="white"/>
<path d="M7.40039 17.2822L7.36492 16.2829L6.36554 16.3179L6.401 17.3173L7.40039 17.2822ZM7.4696 17.2798L8.46898 17.2448L8.43352 16.2454L7.43413 16.2804L7.4696 17.2798ZM7.47597 17.4593L7.51144 18.4587L8.51082 18.4237L8.47536 17.4243L7.47597 17.4593ZM7.40676 17.4618L6.40738 17.4968L6.44284 18.4962L7.44223 18.4611L7.40676 17.4618ZM7.40039 17.2822L7.43586 18.2816L7.50506 18.2792L7.4696 17.2798L7.43413 16.2804L7.36492 16.2829L7.40039 17.2822ZM7.4696 17.2798L6.47021 17.3148L6.47658 17.4944L7.47597 17.4593L8.47536 17.4243L8.46898 17.2448L7.4696 17.2798ZM7.47597 17.4593L7.4405 16.46L7.3713 16.4624L7.40676 17.4618L7.44223 18.4611L7.51144 18.4587L7.47597 17.4593ZM7.40676 17.4618L8.40615 17.4267L8.39978 17.2472L7.40039 17.2822L6.401 17.3173L6.40738 17.4968L7.40676 17.4618Z" fill="white" mask="url(#path-2-inside-1_610_1423)"/>
<mask id="path-4-inside-2_610_1423" fill="white">
<path d="M7.64335 18.7028L7.55469 18.4326L7.49398 18.4523L7.58264 18.7225L7.64335 18.7028Z"/>
</mask>
<path d="M7.64335 18.7028L7.55469 18.4326L7.49398 18.4523L7.58264 18.7225L7.64335 18.7028Z" fill="white"/>
<path d="M7.55469 18.4326L8.50598 18.1243L8.19423 17.1742L7.24294 17.4825L7.55469 18.4326ZM7.64335 18.7028L7.9551 19.653L8.90639 19.3447L8.59464 18.3946L7.64335 18.7028ZM7.58264 18.7225L6.63135 19.0308L6.94309 19.981L7.89439 19.6727L7.58264 18.7225ZM7.49398 18.4523L7.18223 17.5021L6.23094 17.8104L6.54268 18.7606L7.49398 18.4523ZM7.55469 18.4326L6.60339 18.7409L6.69205 19.0111L7.64335 18.7028L8.59464 18.3946L8.50598 18.1243L7.55469 18.4326ZM7.64335 18.7028L7.3316 17.7527L7.27089 17.7724L7.58264 18.7225L7.89439 19.6727L7.9551 19.653L7.64335 18.7028ZM7.58264 18.7225L8.53393 18.4142L8.44527 18.144L7.49398 18.4523L6.54268 18.7606L6.63135 19.0308L7.58264 18.7225ZM7.49398 18.4523L7.80573 19.4025L7.86644 19.3828L7.55469 18.4326L7.24294 17.4825L7.18223 17.5021L7.49398 18.4523Z" fill="white" mask="url(#path-4-inside-2_610_1423)"/>
<mask id="path-6-inside-3_610_1423" fill="white">
<path d="M7.67876 18.5586H7.47461V18.8205H7.67876V18.5586Z"/>
</mask>
<path d="M7.67876 18.5586H7.47461V18.8205H7.67876V18.5586Z" fill="white"/>
<path d="M7.47461 18.5586V17.5586H6.47461V18.5586H7.47461ZM7.67876 18.5586H8.67876V17.5586H7.67876V18.5586ZM7.67876 18.8205V19.8205H8.67876V18.8205H7.67876ZM7.47461 18.8205H6.47461V19.8205H7.47461V18.8205ZM7.47461 18.5586V19.5586H7.67876V18.5586V17.5586H7.47461V18.5586ZM7.67876 18.5586H6.67876V18.8205H7.67876H8.67876V18.5586H7.67876ZM7.67876 18.8205V17.8205H7.47461V18.8205V19.8205H7.67876V18.8205ZM7.47461 18.8205H8.47461V18.5586H7.47461H6.47461V18.8205H7.47461Z" fill="white" mask="url(#path-6-inside-3_610_1423)"/>
<path d="M4.73438 9.74137C5.92354 8.58708 7.02726 8.05973 7.83237 7.79295C8.67359 7.51371 9.25144 7.4977 10.7013 7.07707C11.6306 6.80761 12.3767 6.52838 12.8691 6.33185C12.6797 5.99481 12.3714 5.47368 11.9381 4.87075C11.2096 3.85696 10.7621 3.49057 10.8696 3.09573C10.9216 2.90542 11.1374 2.57816 12.2138 2.39941C13.624 3.71645 14.8669 4.93655 15.9363 6.01882C17.5632 7.66489 18.2151 8.41189 18.6247 9.59998C18.8881 10.3639 18.9312 10.9802 19.0167 12.2118C19.1453 14.0651 19.0519 14.4173 19.0026 16.6076C18.9885 17.2479 19.044 18.2154 19.4175 19.3119C19.7055 20.1576 20.0896 20.8023 20.3829 21.2256" stroke="white" stroke-miterlimit="10"/>
<path d="M5.26335 9.7666C5.16624 9.85024 4.83588 10.1575 4.75264 10.6794C4.66506 11.2321 4.91652 11.6467 4.99889 11.7821C5.45064 12.5276 6.29259 12.624 6.41571 12.6358C6.97412 12.674 7.82734 12.714 8.87565 12.6894C10.0826 12.6603 10.0826 12.5803 10.504 12.654C11.9512 12.9058 12.1663 13.8895 13.3507 13.8585C13.5623 13.8531 14.1727 13.8058 14.7285 13.3476C15.1542 12.9967 15.3537 12.564 15.4413 12.334" stroke="white" stroke-miterlimit="10"/>
<path d="M4.73438 11.4035C5.11699 11.3474 5.60818 11.247 6.14314 11.0606C6.58267 10.9073 6.93552 10.7364 7.20519 10.585" stroke="white" stroke-miterlimit="10"/>
<mask id="path-11-inside-4_610_1423" fill="white">
<path d="M5.0108 10.5618C5.20262 10.4531 5.40035 10.3627 5.6084 10.2933C5.83416 10.2184 6.07319 10.1847 6.29157 10.0901C6.38232 10.0509 6.40445 9.92611 6.35797 9.85042C6.30338 9.76211 6.1964 9.74809 6.10565 9.78734C6.00901 9.82939 5.89465 9.84901 5.78915 9.87494C5.68365 9.90088 5.57225 9.93381 5.46675 9.97026C5.24394 10.0474 5.02851 10.1441 4.82488 10.259C4.7393 10.3074 4.70832 10.4167 4.75849 10.4987C4.80865 10.5807 4.92522 10.6101 5.0108 10.5618Z"/>
</mask>
<path d="M5.0108 10.5618C5.20262 10.4531 5.40035 10.3627 5.6084 10.2933C5.83416 10.2184 6.07319 10.1847 6.29157 10.0901C6.38232 10.0509 6.40445 9.92611 6.35797 9.85042C6.30338 9.76211 6.1964 9.74809 6.10565 9.78734C6.00901 9.82939 5.89465 9.84901 5.78915 9.87494C5.68365 9.90088 5.57225 9.93381 5.46675 9.97026C5.24394 10.0474 5.02851 10.1441 4.82488 10.259C4.7393 10.3074 4.70832 10.4167 4.75849 10.4987C4.80865 10.5807 4.92522 10.6101 5.0108 10.5618Z" fill="#EDCC9B"/>
<path d="M5.0108 10.5618L5.50275 11.4324L5.50358 11.4319L5.0108 10.5618ZM5.6084 10.2933L5.29316 9.34433L5.29204 9.34471L5.6084 10.2933ZM6.29157 10.0901L5.89461 9.17227L5.89403 9.17252L6.29157 10.0901ZM6.35797 9.85042L7.21013 9.32713L7.20854 9.32455L6.35797 9.85042ZM6.10565 9.78734L5.7087 8.8695L5.70669 8.87037L6.10565 9.78734ZM5.46675 9.97026L5.14024 9.02506L5.13976 9.02523L5.46675 9.97026ZM4.82488 10.259L4.33333 9.38816L4.33294 9.38838L4.82488 10.259ZM5.0108 10.5618L5.50358 11.4319C5.64555 11.3515 5.7844 11.2888 5.92476 11.242L5.6084 10.2933L5.29204 9.34471C5.0163 9.43666 4.7597 9.55475 4.51802 9.69161L5.0108 10.5618ZM5.6084 10.2933L5.92363 11.2424C5.9934 11.2192 6.05716 11.2047 6.20154 11.1676C6.32425 11.1361 6.50318 11.0882 6.68912 11.0077L6.29157 10.0901L5.89403 9.17252C5.86159 9.18657 5.81181 9.20282 5.70396 9.23052C5.61779 9.25266 5.44915 9.29252 5.29316 9.34433L5.6084 10.2933ZM6.29157 10.0901L6.68853 11.0079C7.08202 10.8378 7.27984 10.5004 7.34797 10.22C7.41339 9.9507 7.39069 9.62116 7.21013 9.32713L6.35797 9.85042L5.50582 10.3737C5.37174 10.1554 5.36121 9.92604 5.40449 9.74786C5.45049 9.55851 5.59187 9.3032 5.89461 9.17227L6.29157 10.0901ZM6.35797 9.85042L7.20854 9.32455C6.8115 8.68234 6.09652 8.70177 5.7087 8.8695L6.10565 9.78734L6.50261 10.7052C6.3841 10.7564 6.2214 10.7887 6.03558 10.7488C5.83294 10.7053 5.63301 10.5794 5.5074 10.3763L6.35797 9.85042ZM6.10565 9.78734L5.70669 8.87037C5.73331 8.85879 5.74262 8.85847 5.70922 8.86679C5.69376 8.87063 5.67618 8.87468 5.64819 8.88103C5.62351 8.88663 5.58723 8.89481 5.55047 8.90385L5.78915 9.87494L6.02784 10.846C6.03088 10.8453 6.30424 10.7915 6.50462 10.7043L6.10565 9.78734ZM5.78915 9.87494L5.55047 8.90385C5.41447 8.93727 5.27378 8.97893 5.14024 9.02506L5.46675 9.97026L5.79325 10.9155C5.87071 10.8887 5.95282 10.8645 6.02784 10.846L5.78915 9.87494ZM5.46675 9.97026L5.13976 9.02523C4.86118 9.12162 4.59056 9.24296 4.33333 9.38816L4.82488 10.259L5.31644 11.1299C5.46646 11.0452 5.6267 10.9731 5.79373 10.9153L5.46675 9.97026ZM4.82488 10.259L4.33294 9.38838C3.78569 9.6976 3.5417 10.426 3.90547 11.0206L4.75849 10.4987L5.6115 9.9768C5.87494 10.4074 5.69291 10.9171 5.31683 11.1296L4.82488 10.259ZM4.75849 10.4987L3.90547 11.0206C4.24451 11.5747 4.96104 11.7385 5.50275 11.4324L5.0108 10.5618L4.51886 9.69114C4.72206 9.57632 4.93852 9.56499 5.11462 9.60915C5.29012 9.65316 5.48333 9.76731 5.6115 9.9768L4.75849 10.4987Z" fill="white" mask="url(#path-11-inside-4_610_1423)"/>
<path d="M10.498 9.76597C10.5146 9.73284 10.5381 9.68577 10.5667 9.62998C10.6514 9.46262 10.7542 9.26038 10.8509 9.0843C11.058 8.70946 11.1026 8.70423 11.2209 8.40785C11.265 8.29802 11.2991 8.19864 11.3217 8.12891" stroke="white" stroke-miterlimit="10"/>
<path d="M13.4861 13.8594C13.6291 14.4326 13.7975 15.3097 13.7922 16.3805C13.7833 18.1934 13.2849 19.0607 13.0637 20.9012C12.9624 21.7401 12.8976 22.962 13.1076 24.5003" stroke="white" stroke-miterlimit="10"/>
</svg>
