<svg width="60" height="60" viewBox="0 0 60 60" fill="none" xmlns="http://www.w3.org/2000/svg">
<path d="M30 58.6427C46.0163 58.6427 59 45.7389 59 29.8213C59 13.9037 46.0163 1 30 1C13.9837 1 1 13.9037 1 29.8213C1 45.7389 13.9837 58.6427 30 58.6427Z" stroke="#FF5B04" stroke-width="2" stroke-miterlimit="10"/>
<mask id="path-2-inside-1_728_4015" fill="white">
<path d="M17.843 41.5518L17.6758 41.5576L17.6912 41.9915L17.8584 41.9857L17.843 41.5518Z"/>
</mask>
<path d="M17.6758 41.5576L17.6048 39.5589L15.6061 39.6289L15.677 41.6277L17.6758 41.5576ZM17.843 41.5518L19.8418 41.4817L19.7709 39.4829L17.7721 39.553L17.843 41.5518ZM17.8584 41.9857L17.9294 43.9844L19.9281 43.9143L19.8572 41.9156L17.8584 41.9857ZM17.6912 41.9915L15.6924 42.0616L15.7633 44.0603L17.7621 43.9903L17.6912 41.9915ZM17.6758 41.5576L17.7467 43.5564L17.914 43.5505L17.843 41.5518L17.7721 39.553L17.6048 39.5589L17.6758 41.5576ZM17.843 41.5518L15.8443 41.6218L15.8597 42.0557L17.8584 41.9857L19.8572 41.9156L19.8418 41.4817L17.843 41.5518ZM17.8584 41.9857L17.7875 39.9869L17.6202 39.9928L17.6912 41.9915L17.7621 43.9903L17.9294 43.9844L17.8584 41.9857ZM17.6912 41.9915L19.69 41.9215L19.6746 41.4876L17.6758 41.5576L15.677 41.6277L15.6924 42.0616L17.6912 41.9915Z" fill="#FF5B04" mask="url(#path-2-inside-1_728_4015)"/>
<mask id="path-4-inside-2_728_4015" fill="white">
<path d="M18.2611 44.989L18.0469 44.3359L17.9002 44.3835L18.1144 45.0365L18.2611 44.989Z"/>
</mask>
<path d="M18.0469 44.3359L19.9495 43.7194L19.326 41.819L17.4234 42.4356L18.0469 44.3359ZM18.2611 44.989L18.8846 46.8893L20.7872 46.2727L20.1637 44.3724L18.2611 44.989ZM18.1144 45.0365L16.2118 45.6531L16.8353 47.5534L18.7379 46.9369L18.1144 45.0365ZM17.9002 44.3835L17.2767 42.4832L15.3741 43.0997L15.9976 45.0001L17.9002 44.3835ZM18.0469 44.3359L16.1443 44.9525L16.3586 45.6056L18.2611 44.989L20.1637 44.3724L19.9495 43.7194L18.0469 44.3359ZM18.2611 44.989L17.6376 43.0887L17.4909 43.1362L18.1144 45.0365L18.7379 46.9369L18.8846 46.8893L18.2611 44.989ZM18.1144 45.0365L20.017 44.42L19.8028 43.7669L17.9002 44.3835L15.9976 45.0001L16.2118 45.6531L18.1144 45.0365ZM17.9002 44.3835L18.5237 46.2838L18.6704 46.2363L18.0469 44.3359L17.4234 42.4356L17.2767 42.4832L17.9002 44.3835Z" fill="#FF5B04" mask="url(#path-4-inside-2_728_4015)"/>
<mask id="path-6-inside-3_728_4015" fill="white">
<path d="M18.3488 44.6406H17.8555V45.2735H18.3488V44.6406Z"/>
</mask>
<path d="M17.8555 44.6406V42.6406H15.8555V44.6406H17.8555ZM18.3488 44.6406H20.3488V42.6406H18.3488V44.6406ZM18.3488 45.2735V47.2735H20.3488V45.2735H18.3488ZM17.8555 45.2735H15.8555V47.2735H17.8555V45.2735ZM17.8555 44.6406V46.6406H18.3488V44.6406V42.6406H17.8555V44.6406ZM18.3488 44.6406H16.3488V45.2735H18.3488H20.3488V44.6406H18.3488ZM18.3488 45.2735V43.2735H17.8555V45.2735V47.2735H18.3488V45.2735ZM17.8555 45.2735H19.8555V44.6406H17.8555H15.8555V45.2735H17.8555Z" fill="#FF5B04" mask="url(#path-6-inside-3_728_4015)"/>
<path d="M11.2305 23.3339C14.1043 20.5443 16.7716 19.2699 18.7173 18.6252C20.7502 17.9504 22.1467 17.9117 25.6506 16.8952C27.8965 16.244 29.6995 15.5691 30.8895 15.0942C30.4318 14.2797 29.6867 13.0203 28.6394 11.5632C26.8789 9.11322 25.7975 8.22778 26.0572 7.27358C26.1828 6.81367 26.7044 6.02279 29.3057 5.59082C32.7138 8.77366 35.7175 11.7222 38.3018 14.3377C42.2336 18.3157 43.8089 20.121 44.7987 22.9922C45.4352 24.8383 45.5395 26.3276 45.746 29.3041C46.0568 33.7829 45.8312 34.6339 45.712 39.9272C45.6779 41.4746 45.812 43.8128 46.7146 46.4626C47.4107 48.5064 48.3388 50.0646 49.0477 51.0875" stroke="#FF5B04" stroke-width="2" stroke-miterlimit="10"/>
<path d="M12.5088 23.3936C12.2741 23.5957 11.4758 24.3383 11.2746 25.5994C11.063 26.9352 11.6706 27.937 11.8697 28.2644C12.9614 30.066 14.9961 30.2988 15.2937 30.3274C16.6432 30.4197 18.7051 30.5164 21.2385 30.457C24.1554 30.3867 24.1554 30.1934 25.1738 30.3713C28.6712 30.9799 29.1908 33.3571 32.0533 33.2824C32.5645 33.2692 34.0398 33.155 35.3829 32.0477C36.4118 31.1996 36.8938 30.1538 37.1054 29.598" stroke="#FF5B04" stroke-width="2" stroke-miterlimit="10"/>
<path d="M11.2305 27.3502C12.1551 27.2146 13.3422 26.972 14.635 26.5216C15.6972 26.151 16.5499 25.7382 17.2016 25.3721" stroke="#FF5B04" stroke-width="2" stroke-miterlimit="10"/>
<mask id="path-11-inside-4_728_4015" fill="white">
<path d="M11.8985 25.3152C12.3621 25.0527 12.8399 24.8342 13.3427 24.6665C13.8883 24.4853 14.4659 24.404 14.9937 24.1753C15.213 24.0805 15.2665 23.779 15.1542 23.5961C15.0222 23.3827 14.7637 23.3488 14.5444 23.4437C14.3108 23.5453 14.0345 23.5927 13.7795 23.6554C13.5245 23.718 13.2553 23.7977 13.0004 23.8857C12.4619 24.072 11.9413 24.3058 11.4492 24.5835C11.2424 24.7004 11.1675 24.9646 11.2887 25.1628C11.41 25.3609 11.6917 25.4321 11.8985 25.3152Z"/>
</mask>
<path d="M11.8985 25.3152L12.8824 27.0565L12.8841 27.0555L11.8985 25.3152ZM13.3427 24.6665L12.7122 22.7685L12.71 22.7692L13.3427 24.6665ZM14.9937 24.1753L14.1998 22.3397L14.1986 22.3402L14.9937 24.1753ZM15.1542 23.5961L16.8585 22.5495L16.8553 22.5444L15.1542 23.5961ZM14.5444 23.4437L13.7505 21.608L13.7465 21.6097L14.5444 23.4437ZM13.0004 23.8857L12.3474 21.9953L12.3464 21.9957L13.0004 23.8857ZM11.4492 24.5835L10.4661 22.8418L10.4653 22.8423L11.4492 24.5835ZM11.8985 25.3152L12.8841 27.0555C13.2479 26.8495 13.608 26.6863 13.9754 26.5638L13.3427 24.6665L12.71 22.7692C12.0718 22.9821 11.4762 23.2559 10.9129 23.5749L11.8985 25.3152ZM13.3427 24.6665L13.9732 26.5645C14.1597 26.5026 14.3357 26.4623 14.6725 26.3758C14.9659 26.3005 15.3714 26.1913 15.7888 26.0105L14.9937 24.1753L14.1986 22.3402C14.0882 22.388 13.941 22.4339 13.6773 22.5016C13.4569 22.5582 13.0712 22.6492 12.7122 22.7685L13.3427 24.6665ZM14.9937 24.1753L15.7876 26.011C16.5935 25.6625 17.0009 24.9708 17.1418 24.3909C17.2772 23.8333 17.2293 23.1534 16.8585 22.5495L15.1542 23.5961L13.4498 24.6427C13.1914 24.2218 13.1729 23.784 13.2548 23.4466C13.3422 23.0869 13.6132 22.5934 14.1998 22.3397L14.9937 24.1753ZM15.1542 23.5961L16.8553 22.5444C16.0385 21.2232 14.5639 21.2562 13.7505 21.608L14.5444 23.4437L15.3383 25.2793C15.1202 25.3737 14.8154 25.4355 14.4625 25.3598C14.0759 25.2768 13.6929 25.0358 13.453 24.6478L15.1542 23.5961ZM14.5444 23.4437L13.7465 21.6097C13.7796 21.5953 13.7762 21.6011 13.687 21.6233C13.6448 21.6338 13.5983 21.6445 13.5311 21.6598C13.4704 21.6735 13.3867 21.6924 13.3021 21.7132L13.7795 23.6554L14.2569 25.5976C14.3069 25.5853 14.9013 25.4695 15.3423 25.2776L14.5444 23.4437ZM13.7795 23.6554L13.3021 21.7132C12.9862 21.7908 12.6584 21.8879 12.3474 21.9953L13.0004 23.8857L13.6534 25.7761C13.8523 25.7074 14.0629 25.6453 14.2569 25.5976L13.7795 23.6554ZM13.0004 23.8857L12.3464 21.9957C11.6964 22.2206 11.0654 22.5036 10.4661 22.8418L11.4492 24.5835L12.4323 26.3252C12.8172 26.108 13.2274 25.9235 13.6543 25.7758L13.0004 23.8857ZM11.4492 24.5835L10.4653 22.8423C9.33516 23.4809 8.83425 24.9832 9.58271 26.2066L11.2887 25.1628L12.9948 24.119C13.5007 24.946 13.1496 25.9199 12.4331 26.3248L11.4492 24.5835ZM11.2887 25.1628L9.58271 26.2066C10.2817 27.349 11.7633 27.6888 12.8824 27.0565L11.8985 25.3152L10.9146 23.574C11.3032 23.3544 11.715 23.3337 12.048 23.4172C12.3798 23.5004 12.7489 23.7171 12.9948 24.119L11.2887 25.1628Z" fill="#FF5B04" mask="url(#path-11-inside-4_728_4015)"/>
<path d="M25.1641 23.3937C25.204 23.3137 25.261 23.1999 25.33 23.0651C25.5348 22.6606 25.7831 22.1719 26.0169 21.7464C26.5172 20.8405 26.625 20.8279 26.9109 20.1116C27.0176 19.8462 27.0999 19.606 27.1544 19.4375" stroke="#FF5B04" stroke-width="2" stroke-miterlimit="10"/>
<path d="M32.3849 33.2842C32.7306 34.6694 33.1375 36.7891 33.1249 39.377C33.1033 43.7581 31.8989 45.8542 31.3642 50.3019C31.1193 52.3292 30.9627 55.2822 31.4704 58.9997" stroke="#FF5B04" stroke-width="2" stroke-miterlimit="10"/>
</svg>
