<svg width="22" height="20" viewBox="0 0 22 20" fill="none" xmlns="http://www.w3.org/2000/svg">
<path d="M0 9.97674C0 4.4943 4.28732 0 9.63599 0C11.3954 6.16466e-05 13.0453 0.489551 14.4645 1.34202C14.8278 1.56025 14.9454 2.03095 14.7273 2.39426C14.5091 2.75751 14.0384 2.87514 13.6751 2.65707C12.4856 1.94256 11.1068 1.53495 9.63599 1.53488C5.1891 1.53488 1.53488 5.28688 1.53488 9.97674C1.53488 14.6666 5.1891 18.4186 9.63599 18.4186C11.1068 18.4185 12.4856 18.0109 13.6751 17.2964C14.0384 17.0783 14.5091 17.196 14.7273 17.5592C14.9454 17.9225 14.8278 18.3932 14.4645 18.6115C13.0453 19.4639 11.3954 19.9534 9.63599 19.9535C4.28732 19.9535 0 15.4592 0 9.97674ZM16.5969 5.34112C16.8966 5.04141 17.3824 5.04141 17.6821 5.34112L21.7752 9.43414C22.0749 9.73384 22.0749 10.2196 21.7752 10.5193L17.6821 14.6124C17.3824 14.9121 16.8966 14.9121 16.5969 14.6124C16.2972 14.3127 16.2972 13.8269 16.5969 13.5272L19.3799 10.7442H7.93023C7.50639 10.7442 7.16279 10.4006 7.16279 9.97674C7.16279 9.5529 7.50639 9.2093 7.93023 9.2093H19.3799L16.5969 6.42633C16.2972 6.12662 16.2972 5.64082 16.5969 5.34112Z" fill="#FF5B04"/>
</svg>
