<svg width="20" height="22" viewBox="0 0 20 22" fill="none" xmlns="http://www.w3.org/2000/svg">
<path d="M11.7224 19.25C12.1364 18.8846 12.769 18.9239 13.1345 19.3379C13.5 19.752 13.4607 20.3845 13.0466 20.75C12.1659 21.5274 11.0063 21.9999 9.739 22C8.47174 22 7.31217 21.5273 6.43139 20.75C6.01732 20.3845 5.97803 19.752 6.3435 19.3379C6.70896 18.9242 7.34067 18.8848 7.75463 19.25C8.28408 19.7173 8.97748 20 9.739 20C10.5004 19.9999 11.193 19.7172 11.7224 19.25ZM14.739 7C14.739 5.67397 14.2118 4.40251 13.2742 3.46484C12.3365 2.52722 11.065 2.00006 9.739 2C8.41292 2 7.14055 2.52716 6.20287 3.46484C5.26542 4.40249 4.739 5.67409 4.739 7C4.739 10.2677 3.91148 12.5681 2.93725 14.1338C2.72477 14.4753 2.54806 14.7608 2.40307 14.998C2.60937 14.9992 2.84934 15 3.12767 15H16.3503C16.6283 15 16.8679 14.9992 17.074 14.998C16.929 14.7609 16.7522 14.4752 16.5398 14.1338C15.5656 12.5681 14.739 10.2676 14.739 7ZM16.739 7C16.739 9.91265 17.4707 11.8439 18.238 13.0771C18.6009 13.6604 18.8873 14.121 19.0798 14.4551C19.1752 14.6206 19.2625 14.7802 19.3269 14.9219C19.3589 14.9924 19.3946 15.0789 19.4226 15.1729C19.4459 15.2511 19.491 15.4186 19.4744 15.6221C19.4632 15.7589 19.4347 15.9929 19.3005 16.2344C19.1664 16.4757 18.983 16.6233 18.8728 16.7051C18.619 16.8933 18.3268 16.9337 18.2351 16.9473C18.0878 16.9691 17.9203 16.9807 17.7517 16.9873C17.4117 17.0006 16.9388 17 16.3503 17H3.12767C2.53899 17 2.06633 17.0006 1.72631 16.9873C1.55755 16.9807 1.39032 16.9691 1.24291 16.9473C1.15174 16.9338 0.859368 16.8934 0.605214 16.7051C0.494973 16.6233 0.310655 16.4759 0.176503 16.2344C0.0423578 15.9929 0.0148402 15.7589 0.00365147 15.6221C-0.0129539 15.4186 0.0311337 15.2511 0.0544327 15.1729C0.0824851 15.0788 0.119045 14.9925 0.151112 14.9219C0.215428 14.7802 0.301872 14.6205 0.397206 14.4551C0.589701 14.1211 0.876161 13.6603 1.239 13.0771C2.00638 11.8439 2.739 9.91267 2.739 7C2.739 5.14348 3.47605 3.36256 4.78881 2.0498C6.10155 0.737121 7.88254 0 9.739 0C11.5953 5.95969e-05 13.3756 0.737338 14.6882 2.0498C16.001 3.36256 16.739 5.14349 16.739 7Z" fill="#FF5B04"/>
</svg>
