<svg width="27" height="29" viewBox="0 0 27 29" fill="none" xmlns="http://www.w3.org/2000/svg">
<path d="M19.1192 6.99414C18.7245 6.28549 17.9184 6.09098 17.3618 6.401L2.40286 14.7324L8.6656 25.9668C9.18894 26.9064 10.2765 27.1891 11.0519 26.7572L24.125 19.4761C24.9004 19.0443 25.2326 17.9708 24.7094 17.0312L19.1192 6.99414ZM17.0693 13.8863C17.2088 13.3402 17.765 13.0107 18.3111 13.1502C18.857 13.2899 19.1862 13.8452 19.0468 14.3911L19.0403 14.4164C18.9006 14.9623 18.3453 15.2915 17.7994 15.1521C17.2533 15.0125 16.9242 14.4572 17.0637 13.9111L17.0693 13.8863ZM10.3307 3.69612C9.3743 4.9267 8.1006 6.56989 6.83149 8.21965C6.04512 9.24189 5.26309 10.2667 4.55807 11.1958L13.0009 6.49355L10.9788 2.86287C10.7856 3.11111 10.5679 3.3909 10.3307 3.69612ZM26.4925 16.0381C27.5128 17.8702 26.9681 20.2289 25.1181 21.2593L12.0451 28.5404C10.2527 29.5386 8.04571 28.8387 6.98187 27.1282L6.88247 26.9599L0.128997 14.8444L0.0837891 14.751C0.0515791 14.6757 0.0336328 14.6034 0.021224 14.5383L0.018612 14.5397C0.0172078 14.5323 0.0175026 14.5245 0.0162647 14.5171C-0.00240928 14.4065 -0.0006303 14.3183 0.00264427 14.2714C0.00357105 14.2582 0.00716932 14.2452 0.00850773 14.2328C0.00926555 14.2259 0.00981903 14.219 0.0107121 14.2122C0.0206421 14.1341 0.0352423 14.0727 0.0457602 14.0375C0.0724121 13.9484 0.10545 13.877 0.122699 13.8418C0.161188 13.7633 0.208853 13.6855 0.248109 13.6225C0.331163 13.4891 0.447323 13.3172 0.583659 13.1231C0.859572 12.7302 1.25507 12.1898 1.72653 11.558C2.67185 10.291 3.94292 8.6272 5.21412 6.97472C6.48595 5.3214 7.7617 3.67536 8.71918 2.44334C9.19786 1.8274 9.59702 1.31444 9.87665 0.955668C10.0164 0.776347 10.1267 0.635757 10.2016 0.53967C10.2391 0.491615 10.2679 0.454078 10.2873 0.429228C10.2969 0.41697 10.3043 0.407306 10.3092 0.401037C10.3115 0.398115 10.3135 0.39609 10.3147 0.394545L10.316 0.392705C10.5266 0.123143 10.8588 -0.0233539 11.1998 0.0031164C11.5409 0.0295952 11.8458 0.224862 12.0122 0.523701L14.784 5.50043L16.3687 4.61787C17.9999 3.70933 20.0106 4.3999 20.9023 6.00102L26.4925 16.0381Z" fill="#FF5B04"/>
</svg>
