<svg width="22" height="22" viewBox="0 0 22 22" fill="none" xmlns="http://www.w3.org/2000/svg">
<path d="M12.0932 2.62809C12.0932 2.3382 11.9774 2.05963 11.7724 1.85465C11.5675 1.64993 11.2897 1.53488 11 1.53488C10.7103 1.53488 10.4325 1.64993 10.2276 1.85465C10.0226 2.05963 9.9068 2.3382 9.9068 2.62809V2.78897C9.905 3.23797 9.77199 3.6767 9.52407 4.05105C9.27616 4.4254 8.9245 4.71956 8.51181 4.89644C8.44142 4.92661 8.36682 4.94528 8.29097 4.9534C7.91186 5.08913 7.50295 5.12442 7.10483 5.05233C6.6524 4.97029 6.23449 4.7542 5.9057 4.43278L5.89871 4.42678L5.84375 4.37082L5.84275 4.36982C5.74132 4.26838 5.62053 4.18793 5.48801 4.13299C5.3554 4.07807 5.21285 4.05005 5.06931 4.05005C4.92596 4.05011 4.78407 4.07814 4.65162 4.13299C4.51911 4.18792 4.3983 4.2684 4.29688 4.36982L4.29588 4.37082C4.1943 4.47228 4.11405 4.59296 4.05905 4.72556C4.00404 4.85825 3.97511 5.00062 3.97511 5.14426C3.97512 5.28787 4.00405 5.43029 4.05905 5.56295C4.1003 5.66237 4.15586 5.75488 4.22393 5.83775L4.29588 5.9177L4.35783 5.97965C4.6795 6.3085 4.8953 6.72615 4.97738 7.17878C5.05943 7.6313 5.00412 8.09804 4.8185 8.5188L4.8175 8.51781C4.65515 8.93259 4.37793 9.29253 4.01508 9.55205C3.63944 9.82072 3.19171 9.96985 2.73001 9.98074C2.72417 9.98088 2.71788 9.98174 2.71203 9.98174H2.62809C2.3382 9.98174 2.05963 10.0965 1.85465 10.3015C1.64989 10.5064 1.53501 10.7843 1.53488 11.0739C1.53488 11.3638 1.64976 11.6424 1.85465 11.8474C2.05963 12.0524 2.3382 12.1672 2.62809 12.1672H2.78897C3.23789 12.1689 3.67674 12.302 4.05105 12.5499C4.42541 12.7978 4.71956 13.1504 4.89644 13.5631H4.89544C5.07844 13.9819 5.13377 14.4454 5.05233 14.8952C4.97029 15.3476 4.7542 15.7655 4.43278 16.0943L4.42678 16.1013L4.37082 16.1562L4.36982 16.1572C4.26838 16.2587 4.18793 16.3795 4.13299 16.512C4.07807 16.6446 4.05005 16.7871 4.05005 16.9307C4.05011 17.074 4.07814 17.2159 4.13299 17.3484C4.18792 17.4809 4.2684 17.6017 4.36982 17.7031L4.37082 17.7041C4.47228 17.8057 4.59295 17.8859 4.72556 17.941C4.85825 17.996 5.00062 18.0249 5.14426 18.0249C5.28788 18.0249 5.43029 17.9959 5.56295 17.941C5.69551 17.8859 5.81627 17.8057 5.9177 17.7041L5.97965 17.6422C6.30849 17.3205 6.72615 17.1047 7.17878 17.0226C7.6151 16.9435 8.06403 16.9935 8.47284 17.1635H8.47384C8.4778 17.165 8.48188 17.167 8.48583 17.1685C8.4967 17.1731 8.50799 17.1767 8.5188 17.1815H8.51781C8.93274 17.3438 9.29245 17.622 9.55205 17.9849C9.82072 18.3606 9.96985 18.8083 9.98074 19.27C9.98088 19.2758 9.98174 19.2821 9.98174 19.288V19.3719C9.98174 19.6618 10.0965 19.9404 10.3015 20.1453C10.5064 20.3501 10.7843 20.465 11.0739 20.4651C11.3638 20.4651 11.6424 20.3502 11.8474 20.1453C12.0524 19.9404 12.1672 19.6618 12.1672 19.3719V19.211C12.1689 18.7621 12.302 18.3233 12.5499 17.9489C12.7669 17.6213 13.0639 17.3553 13.4112 17.1755L13.5631 17.1036C13.9818 16.9207 14.4455 16.8663 14.8952 16.9477C15.3476 17.0297 15.7655 17.2458 16.0943 17.5672L16.1013 17.5732L16.1562 17.6292L16.1572 17.6302C16.2587 17.7316 16.3795 17.8121 16.512 17.867C16.6446 17.9219 16.7871 17.9499 16.9307 17.9499C17.074 17.9499 17.2159 17.9219 17.3484 17.867C17.4809 17.8121 17.6017 17.7316 17.7031 17.6302L17.7041 17.6292C17.8057 17.5277 17.8859 17.407 17.941 17.2744C17.996 17.1417 18.0249 16.9994 18.0249 16.8557C18.0249 16.7121 17.9959 16.5697 17.941 16.437C17.8997 16.3376 17.8441 16.2451 17.7761 16.1622L17.7041 16.0823L17.6422 16.0203C17.3205 15.6915 17.1047 15.2738 17.0226 14.8212C16.9406 14.3687 16.9959 13.902 17.1815 13.4812C17.3587 13.0717 17.6509 12.7224 18.0229 12.4759C18.3972 12.2281 18.8361 12.0951 19.285 12.0932H19.3719C19.6618 12.0932 19.9404 11.9774 20.1453 11.7724C20.3501 11.5675 20.4651 11.2897 20.4651 11C20.4651 10.7103 20.3501 10.4325 20.1453 10.2276C19.9404 10.0226 19.6618 9.9068 19.3719 9.9068H19.211C18.762 9.905 18.3233 9.77199 17.9489 9.52407C17.5746 9.27616 17.2804 8.9245 17.1036 8.51181C17.0734 8.44138 17.0537 8.36686 17.0456 8.29097C16.91 7.91195 16.8756 7.50284 16.9477 7.10483C17.0297 6.6524 17.2458 6.23449 17.5672 5.9057L17.5732 5.89871L17.6292 5.84375L17.6302 5.84275C17.7316 5.74132 17.8121 5.62053 17.867 5.48801C17.9219 5.3554 17.9499 5.21285 17.9499 5.06931C17.9499 4.92596 17.9219 4.78406 17.867 4.65162C17.8121 4.51912 17.7316 4.3983 17.6302 4.29688L17.6292 4.29588C17.5277 4.1943 17.407 4.11405 17.2744 4.05905C17.1417 4.00404 16.9994 3.97511 16.8557 3.97511C16.7121 3.97512 16.5697 4.00405 16.437 4.05905C16.3376 4.1003 16.2451 4.15586 16.1622 4.22393L16.0823 4.29588L16.0203 4.35783C15.6915 4.6795 15.2738 4.8953 14.8212 4.97738C14.3711 5.059 13.9072 5.00379 13.4882 4.82049V4.82149C13.4868 4.82091 13.4856 4.82008 13.4842 4.81949C13.4832 4.81907 13.4822 4.81892 13.4812 4.8185V4.8175C13.0719 4.64033 12.7223 4.34902 12.4759 3.97711C12.2281 3.60284 12.0951 3.16391 12.0932 2.71503V2.62809ZM13.3023 11C13.3023 9.72846 12.2715 8.69767 11 8.69767C9.72846 8.69767 8.69767 9.72846 8.69767 11C8.69767 12.2715 9.72846 13.3023 11 13.3023C12.2715 13.3023 13.3023 12.2715 13.3023 11ZM14.8372 11C14.8372 13.1192 13.1192 14.8372 11 14.8372C8.88077 14.8372 7.16279 13.1192 7.16279 11C7.16279 8.88077 8.88077 7.16279 11 7.16279C13.1192 7.16279 14.8372 8.88077 14.8372 11ZM13.6281 2.70903L13.6361 2.81995C13.6527 2.93007 13.693 3.03613 13.755 3.12972C13.8376 3.25435 13.9554 3.35156 14.0928 3.41052L14.1007 3.41452C14.241 3.47633 14.3966 3.49482 14.5474 3.46748C14.6983 3.44012 14.8375 3.36785 14.9471 3.26063L14.9961 3.21066C15.2401 2.96637 15.5305 2.77332 15.8495 2.64108C16.1685 2.50884 16.5104 2.44023 16.8557 2.44023C17.2011 2.44023 17.543 2.50883 17.862 2.64108C18.181 2.77332 18.4713 2.96637 18.7154 3.21066H18.7144C18.9586 3.45464 19.1527 3.74415 19.285 4.06305C19.4172 4.38193 19.4848 4.72412 19.4848 5.06931C19.4848 5.41466 19.4172 5.75756 19.285 6.07658C19.1858 6.31578 19.052 6.53873 18.8883 6.7381L18.7144 6.92896L18.6594 6.98492C18.5554 7.09359 18.4854 7.23051 18.4586 7.37863C18.4313 7.52941 18.4497 7.68513 18.5115 7.82531C18.5365 7.88195 18.5528 7.94154 18.5635 8.00218C18.622 8.0988 18.7014 8.18215 18.7963 8.245C18.9211 8.32755 19.0674 8.37131 19.217 8.37191H19.3719C20.0688 8.37191 20.7377 8.64858 21.2306 9.14135C21.7234 9.63418 22 10.303 22 11C22 11.697 21.7234 12.3658 21.2306 12.8586C20.7377 13.3514 20.0688 13.6281 19.3719 13.6281H19.291L19.1801 13.6361C19.0699 13.6527 18.9639 13.693 18.8703 13.755C18.7456 13.8376 18.6484 13.9554 18.5895 14.0928L18.5855 14.1007C18.5237 14.241 18.5052 14.3966 18.5325 14.5474C18.5599 14.6983 18.6322 14.8375 18.7394 14.9471L18.7883 14.9961H18.7893C19.0336 15.2401 19.2267 15.5305 19.3589 15.8495C19.4912 16.1685 19.5598 16.5104 19.5598 16.8557C19.5598 17.2011 19.4912 17.543 19.3589 17.862C19.2267 18.181 19.0336 18.4713 18.7893 18.7154L18.7883 18.7144C18.5445 18.9584 18.2556 19.1528 17.937 19.285C17.6181 19.4172 17.2759 19.4848 16.9307 19.4848C16.5853 19.4848 16.2424 19.4172 15.9234 19.285C15.6842 19.1858 15.4613 19.052 15.2619 18.8883L15.071 18.7144L15.0151 18.6594V18.6584C14.9065 18.5547 14.7693 18.4854 14.6214 18.4586C14.4706 18.4313 14.3149 18.4497 14.1747 18.5115L14.1677 18.5145C14.0301 18.5735 13.9126 18.6716 13.8299 18.7963C13.7473 18.9211 13.7026 19.0674 13.702 19.217V19.3719C13.702 20.0689 13.4254 20.7377 12.9326 21.2306C12.4398 21.7233 11.7708 22 11.0739 22C10.3772 21.9999 9.709 21.7232 9.2163 21.2306C8.72347 20.7377 8.44686 20.0689 8.44686 19.3719V19.306L8.43586 19.192C8.41617 19.0794 8.371 18.9721 8.30396 18.8783C8.21438 18.753 8.08875 18.6576 7.94422 18.6045C7.92905 18.5989 7.91405 18.592 7.89926 18.5855C7.75904 18.5237 7.60336 18.5052 7.45258 18.5325C7.30171 18.5599 7.16248 18.6322 7.05287 18.7394L7.00291 18.7883L7.00391 18.7893C6.75988 19.0336 6.46949 19.2267 6.15053 19.3589C5.83153 19.4912 5.48958 19.5598 5.14426 19.5598C4.79891 19.5598 4.45701 19.4912 4.13799 19.3589C3.819 19.2267 3.52866 19.0336 3.28461 18.7893V18.7883C3.04084 18.5446 2.84708 18.2554 2.71503 17.937C2.58284 17.6181 2.51523 17.2759 2.51517 16.9307C2.51517 16.5853 2.58278 16.2424 2.71503 15.9234C2.84727 15.6045 3.04137 15.315 3.28561 15.071L3.34057 15.0151C3.44456 14.9064 3.51457 14.7695 3.54142 14.6214C3.56869 14.4706 3.55033 14.3149 3.48846 14.1747L3.48547 14.1677C3.42651 14.0301 3.32845 13.9126 3.20367 13.8299C3.07888 13.7473 2.93264 13.7026 2.78298 13.702H2.62809C1.93112 13.702 1.26227 13.4254 0.76944 12.9326C0.276703 12.4398 0 11.7708 0 11.0739C0.000125039 10.3772 0.276831 9.709 0.76944 9.2163C1.26227 8.72347 1.93112 8.44686 2.62809 8.44686H2.69404C2.84769 8.44319 2.99666 8.39328 3.12173 8.30396C3.24698 8.21438 3.34237 8.08875 3.39553 7.94422C3.40111 7.92905 3.40799 7.91405 3.41452 7.89926C3.47633 7.75904 3.49482 7.60336 3.46748 7.45258C3.44012 7.30171 3.36785 7.16248 3.26063 7.05287L3.21066 7.00291V7.00391C2.96637 6.75988 2.77333 6.4695 2.64108 6.15053C2.50884 5.83153 2.44023 5.48958 2.44023 5.14426C2.44023 4.79891 2.50883 4.45701 2.64108 4.13799C2.77331 3.819 2.96637 3.52866 3.21066 3.28461C3.45454 3.04061 3.74437 2.84717 4.06305 2.71503C4.38193 2.58284 4.72412 2.51523 5.06931 2.51517C5.41466 2.51517 5.75756 2.58278 6.07658 2.71503C6.39546 2.84727 6.68499 3.04137 6.92896 3.28561L6.98492 3.34057C7.09359 3.44456 7.23051 3.51457 7.37863 3.54142C7.5294 3.56869 7.68513 3.55033 7.82531 3.48846L7.89926 3.46048C7.93293 3.44962 7.96737 3.44162 8.00218 3.4355C8.09861 3.37703 8.18225 3.29843 8.245 3.20367C8.327 3.07976 8.37074 2.93451 8.37191 2.78597V2.62809C8.37191 1.93117 8.64858 1.26226 9.14135 0.76944C9.63418 0.276612 10.303 0 11 0C11.697 0 12.3658 0.276612 12.8586 0.76944C13.3514 1.26226 13.6281 1.93117 13.6281 2.62809V2.70903Z" fill="#FF5B04"/>
</svg>
