<svg width="24" height="24" viewBox="0 0 24 24" fill="none" xmlns="http://www.w3.org/2000/svg">
<path d="M23 12C23 5.92487 18.0751 1 12 1C5.92487 1 1 5.92487 1 12C1 18.0751 5.92487 23 12 23V24C5.37258 24 0 18.6274 0 12C0 5.37258 5.37258 0 12 0C18.6274 0 24 5.37258 24 12C24 18.6274 18.6274 24 12 24V23C18.0751 23 23 18.0751 23 12Z" fill="#FF5B04"/>
<path d="M8.17866 5.81641C8.55842 5.81654 8.82789 6.03543 8.95503 6.16016L9.2314 6.4248C9.32177 6.51399 9.41102 6.60466 9.50093 6.69629C9.54471 6.74088 9.58993 6.78615 9.63667 6.83301C9.68129 6.87773 9.72771 6.92424 9.77437 6.97168L10.5751 7.76172C10.778 7.96193 10.957 8.23102 10.957 8.56738C10.9568 8.90353 10.7779 9.17195 10.5751 9.37207C10.4989 9.44734 10.4051 9.54239 10.3164 9.62695C10.2633 9.68061 10.2289 9.7162 10.2099 9.73535C10.1924 9.753 10.1669 9.77837 10.1357 9.80371C10.129 9.80909 10.1232 9.81401 10.1201 9.81641C10.1154 9.81999 10.1158 9.81933 10.1132 9.82129C10.1115 9.82266 10.1078 9.82587 10.1015 9.83105C10.0869 9.84308 10.0567 9.86695 9.99897 9.91797L9.99995 9.91895C9.97198 9.94655 9.96139 9.96488 9.95796 9.97168C9.95511 9.97737 9.95421 9.9801 9.95405 9.98145C9.95328 9.98807 9.95368 10.0092 9.97261 10.0684C10.1574 10.5056 10.4205 10.9309 10.8417 11.459L11.1367 11.8047C11.729 12.4758 12.3434 13.026 12.997 13.4756L13.3271 13.6924C13.4228 13.7522 13.5241 13.8029 13.6445 13.8623C13.7327 13.9059 13.8368 13.9587 13.9345 14.0156C13.9518 14.0241 13.9665 14.0318 13.9755 14.0371C13.9772 14.0381 13.9788 14.0391 13.9804 14.04C14.0133 14.055 14.0294 14.0566 14.039 14.0566C14.0535 14.0566 14.067 14.0533 14.083 14.0439C14.1012 14.0332 14.1154 14.02 14.1347 14.001L14.7099 13.4336C14.8329 13.3122 15.114 13.0723 15.5039 13.0723L15.6435 13.082C15.9433 13.1263 16.1601 13.3055 16.2773 13.4277H16.2783L16.2841 13.4336L17.8994 15.0273L17.9589 15.0918C18.2374 15.42 18.1959 15.8368 18.1552 16.0449C18.1298 16.1751 18.0923 16.2889 18.0625 16.3682C18.0473 16.4084 18.0331 16.4415 18.0224 16.4658C18.0171 16.478 18.0123 16.4884 18.0087 16.4961C18.007 16.4998 18.0061 16.5033 18.0048 16.5059C18.0043 16.507 18.0033 16.5079 18.0029 16.5088L18.0019 16.5107C17.9893 16.5366 17.9738 16.5618 17.957 16.585L17.9013 16.6504L17.8994 16.6523C17.898 16.6537 17.8952 16.6556 17.8925 16.6582C17.8872 16.6634 17.8791 16.6709 17.8691 16.6807C17.8487 16.7006 17.8191 16.7295 17.7832 16.7646C17.7113 16.835 17.6138 16.9309 17.5107 17.0332C17.2966 17.2456 17.0819 17.4635 17.0068 17.5508C17.0017 17.5567 16.9966 17.5627 16.9912 17.5684C16.5955 17.9858 16.1124 18.1846 15.5244 18.1846C15.4836 18.1846 15.4196 18.1848 15.3564 18.1807V18.1797C14.3862 18.1181 13.5051 17.7479 12.8867 17.4561L12.8847 17.4551C11.159 16.6306 9.64368 15.4603 8.38667 13.9795L8.38569 13.9775C7.35635 12.7532 6.65359 11.6039 6.18647 10.3584L6.18745 10.3574C5.89905 9.59475 5.77593 8.95597 5.82808 8.32812V8.32715C5.86771 7.86957 6.05225 7.47775 6.37983 7.1543L7.38081 6.16602L7.39253 6.15527C7.59416 5.96849 7.86266 5.81641 8.17866 5.81641ZM13.4746 14.9023C13.4672 14.8983 13.4592 14.895 13.4521 14.8906C13.3903 14.8528 13.3129 14.8135 13.2021 14.7588C13.0878 14.7024 12.9426 14.6306 12.7978 14.54V14.541C11.8033 13.9203 10.9086 13.1141 10.0693 12.0938V12.0928C10.0671 12.0901 10.0646 12.0877 10.0625 12.085C9.59725 11.502 9.27534 10.9928 9.0439 10.4395C9.03944 10.4288 9.0349 10.4182 9.0312 10.4072C9.02973 10.4029 9.02779 10.3979 9.02632 10.3936C9.0249 10.3894 9.02383 10.3851 9.02241 10.3809L9.01948 10.373C8.98558 10.2671 8.93527 10.0836 8.96089 9.86523C8.98701 9.64259 9.08652 9.4255 9.27241 9.23242C9.29916 9.20137 9.32285 9.18253 9.33198 9.1748C9.39776 9.11661 9.43841 9.0809 9.46675 9.05762C9.4795 9.04715 9.48957 9.03878 9.498 9.03223C9.49872 9.03151 9.50013 9.03108 9.50093 9.03027C9.52169 9.00937 9.55206 8.97785 9.61616 8.91309C9.61957 8.90965 9.6234 8.90666 9.6269 8.90332C9.70831 8.82575 9.77907 8.75285 9.873 8.66016C9.91798 8.61576 9.9386 8.58411 9.94917 8.56641C9.93842 8.54859 9.91736 8.51741 9.873 8.47363L9.07124 7.68359L9.06636 7.67773C9.02105 7.63163 8.97538 7.58589 8.92866 7.53906L8.78706 7.39648C8.60899 7.21499 8.44565 7.05166 8.27632 6.89551L8.25581 6.875C8.2311 6.85062 8.20715 6.83337 8.18843 6.82324C8.17122 6.81394 8.16967 6.81641 8.17866 6.81641C8.19447 6.81631 8.15747 6.80975 8.07222 6.88867L7.08296 7.86523C6.92359 8.02251 6.84322 8.19309 6.82417 8.41309C6.79311 8.79036 6.84896 9.2081 7.03511 9.76074L7.123 10.0059V10.0078C7.542 11.125 8.17808 12.1764 9.14937 13.332C10.316 14.7064 11.7178 15.7891 13.3134 16.5518C13.9097 16.8332 14.6484 17.1338 15.4208 17.1826H15.4228C15.4474 17.1842 15.4775 17.1846 15.5244 17.1846C15.852 17.1846 16.0683 17.089 16.2656 16.8809C16.3795 16.7518 16.6133 16.516 16.8066 16.3242C16.9117 16.2199 17.011 16.1222 17.0839 16.0508C17.1004 16.0347 17.1153 16.0191 17.1289 16.0059C17.1447 15.9627 17.1629 15.9091 17.1738 15.8535C17.1856 15.7929 17.1858 15.7498 17.1826 15.7256L15.581 14.1455L15.5751 14.1396C15.5698 14.1343 15.5647 14.1286 15.5595 14.123C15.5401 14.102 15.5191 14.0854 15.5029 14.0762L15.5019 14.0752C15.4996 14.0763 15.4971 14.0784 15.4941 14.0801C15.4701 14.0935 15.4414 14.1166 15.4121 14.1455L14.8369 14.7129C14.7773 14.7716 14.4975 15.0566 14.039 15.0566C13.856 15.0566 13.6866 15.0112 13.5273 14.9326C13.5102 14.9242 13.4963 14.9164 13.4873 14.9111C13.4823 14.9082 13.478 14.9045 13.4746 14.9023ZM10.0146 9.90039C10.0221 9.89238 10.0306 9.88355 10.039 9.87305C10.0314 9.88265 10.0229 9.89136 10.0146 9.90039ZM10.0556 9.85254C10.0688 9.8342 10.0825 9.81307 10.0947 9.78906C10.0834 9.81125 10.07 9.83233 10.0556 9.85254ZM13.4726 14.9014C13.4767 14.9037 13.4833 14.9078 13.4921 14.9121C13.4861 14.9091 13.4804 14.9056 13.4746 14.9023L13.4726 14.9014Z" fill="#FF5B04"/>
</svg>
