<svg width="22" height="20" viewBox="0 0 22 20" fill="none" xmlns="http://www.w3.org/2000/svg">
<path d="M19.2002 6.28027C19.2002 5.50707 18.573 4.87988 17.7998 4.87988H15.4004C15.0447 4.87988 14.7153 4.69101 14.5361 4.38379L13.1455 2H8.05469L6.66406 4.38379C6.48485 4.69101 6.15547 4.87988 5.7998 4.87988H3.40039C2.62719 4.87988 2 5.50708 2 6.28027V16.1201C2.00006 16.8933 2.62723 17.5195 3.40039 17.5195H17.7998C18.573 17.5195 19.2001 16.8933 19.2002 16.1201V6.28027ZM13.2002 10.5996C13.2 9.16385 12.0354 8 10.5996 8C9.16398 8.00021 8.00021 9.16398 8 10.5996C8 12.0354 9.16385 13.2 10.5996 13.2002C12.0355 13.2002 13.2002 12.0355 13.2002 10.5996ZM15.2002 10.5996C15.2002 13.1401 13.1401 15.2002 10.5996 15.2002C8.05928 15.2 6 13.14 6 10.5996C6.00021 8.05941 8.05941 6.00021 10.5996 6C13.14 6 15.2 8.05928 15.2002 10.5996ZM21.2002 16.1201C21.2001 17.9978 19.6775 19.5195 17.7998 19.5195H3.40039C1.52266 19.5195 6.33931e-05 17.9978 0 16.1201V6.28027C0 4.4025 1.52262 2.87988 3.40039 2.87988H5.22559L6.61621 0.496094L6.69043 0.386719C6.8783 0.144772 7.16928 0 7.48047 0H13.7197C14.0754 0 14.4048 0.188876 14.584 0.496094L15.9746 2.87988H17.7998C19.6776 2.87988 21.2002 4.4025 21.2002 6.28027V16.1201Z" fill="#FF5B04"/>
</svg>
