<svg width="32" height="32" viewBox="0 0 32 32" fill="none" xmlns="http://www.w3.org/2000/svg">
<path d="M30 16C30 8.26801 23.732 2 16 2C8.26801 2 2 8.26801 2 16C2 23.732 8.26801 30 16 30V32C7.16344 32 0 24.8366 0 16C0 7.16344 7.16344 0 16 0C24.8366 0 32 7.16344 32 16C32 24.8366 24.8366 32 16 32V30C23.732 30 30 23.732 30 16Z" fill="#0ECC00"/>
<path d="M19.8749 11.2191C20.3061 10.8741 20.9361 10.9441 21.2811 11.3754C21.6261 11.8067 21.5561 12.4366 21.1249 12.7816C19.9777 13.6993 18.8092 15.2491 17.787 16.893C16.777 18.5172 15.9619 20.1474 15.5038 21.1469C15.3492 21.4842 15.0198 21.7084 14.6493 21.7289C14.279 21.7492 13.928 21.5626 13.7372 21.2445C13.4092 20.6979 12.8059 19.9696 12.1386 19.2709C11.4736 18.5748 10.8141 17.9804 10.412 17.6879C9.96534 17.363 9.86645 16.7371 10.1913 16.2904C10.5161 15.844 11.1412 15.7452 11.5878 16.0697C12.1271 16.462 12.8806 17.1518 13.5848 17.8891C13.8647 18.1821 14.1474 18.4948 14.4149 18.8109C14.8705 17.9189 15.44 16.8791 16.0878 15.8373C17.141 14.1435 18.4545 12.3554 19.8749 11.2191Z" fill="#0ECC00"/>
</svg>
