<svg width="12" height="15" viewBox="0 0 12 15" fill="none" xmlns="http://www.w3.org/2000/svg">
<path d="M11 4.7002C11 3.31948 9.88071 2.2002 8.5 2.2002H3.5C2.11929 2.2002 1 3.31948 1 4.7002V11.5C1 12.8807 2.11929 14 3.5 14H8.5C9.88071 14 11 12.8807 11 11.5V4.7002ZM9.09375 4C9.36989 4 9.59375 4.22386 9.59375 4.5C9.59374 4.77613 9.36989 5 9.09375 5H2.85742C2.58129 5 2.35743 4.77613 2.35742 4.5C2.35742 4.22386 2.58128 4 2.85742 4H9.09375ZM12 11.5C12 13.433 10.433 15 8.5 15H3.5C1.567 15 0 13.433 0 11.5V4.7002C0 3.33108 0.786159 2.14546 1.93164 1.57031V0.5C1.93164 0.223858 2.1555 0 2.43164 0C2.70774 5.01163e-05 2.93164 0.223889 2.93164 0.5V1.24609C3.11663 1.21588 3.30647 1.2002 3.5 1.2002H8.5C8.64818 1.2002 8.79416 1.20966 8.9375 1.22754V0.5C8.9375 0.223858 9.16136 0 9.4375 0C9.71364 0 9.9375 0.223858 9.9375 0.5V1.50781C11.1536 2.05629 12 3.27952 12 4.7002V11.5Z" fill="#EB5C33"/>
</svg>
