<svg width="21" height="20" viewBox="0 0 21 20" fill="none" xmlns="http://www.w3.org/2000/svg">
<path d="M18.0518 4.81821L12.2912 0.787817C10.721 -0.31229 8.31081 -0.252284 6.80066 0.91783L1.79017 4.82821C0.790077 5.60829 0 7.20844 0 8.46857V15.3692C0 17.9195 2.0702 19.9997 4.62045 19.9997H15.4015C17.9518 19.9997 20.022 17.9295 20.022 15.3792V8.59858C20.022 7.24845 19.1519 5.58829 18.0518 4.81821ZM10.7611 15.9993C10.7611 16.4093 10.421 16.7494 10.011 16.7494C9.60094 16.7494 9.2609 16.4093 9.2609 15.9993V12.999C9.2609 12.589 9.60094 12.2489 10.011 12.2489C10.421 12.2489 10.7611 12.589 10.7611 12.999V15.9993Z" fill="#FF5B04"/>
</svg>
