<svg width="11" height="15" viewBox="0 0 11 15" fill="none" xmlns="http://www.w3.org/2000/svg">
<path d="M5.83496 13.8711L5.5 14.1738L5.16504 13.8711L5.5 13.5L5.83496 13.8711ZM10 5.58691C9.99998 3.04547 7.97717 1 5.5 1C3.02282 1 1.00002 3.04547 1 5.58691C1 6.32028 1.27312 7.1558 1.72461 8.02344C2.17285 8.88483 2.77659 9.73963 3.38965 10.502C4.00132 11.2625 4.61447 11.9209 5.0752 12.3896C5.23779 12.5551 5.38292 12.6951 5.5 12.8086C5.61708 12.6951 5.76221 12.5551 5.9248 12.3896C6.38553 11.9209 6.99868 11.2625 7.61035 10.502C8.22341 9.73963 8.82715 8.88483 9.27539 8.02344C9.72688 7.1558 10 6.32028 10 5.58691ZM6.59766 5.375C6.5976 4.74557 6.09785 4.25 5.5 4.25C4.90224 4.25011 4.40338 4.74564 4.40332 5.375C4.40332 6.00441 4.9022 6.49989 5.5 6.5C6.09789 6.5 6.59766 6.00448 6.59766 5.375ZM11 5.58691C11 6.5492 10.6481 7.55136 10.1621 8.48535C9.67288 9.42542 9.02647 10.337 8.38965 11.1289C7.7515 11.9224 7.11439 12.6058 6.6377 13.0908C6.39904 13.3336 6.19975 13.5276 6.05957 13.6611C5.98956 13.7278 5.93466 13.78 5.89648 13.8154C5.87738 13.8331 5.86178 13.8461 5.85156 13.8555C5.84651 13.8601 5.8426 13.8637 5.83984 13.8662L5.83594 13.8701V13.8711L5.5 13.5L5.16406 13.8701L5.16016 13.8662C5.1574 13.8637 5.15349 13.8601 5.14844 13.8555C5.13822 13.8461 5.12262 13.8331 5.10352 13.8154C5.06534 13.78 5.01044 13.7278 4.94043 13.6611C4.80025 13.5276 4.60096 13.3336 4.3623 13.0908C3.88561 12.6058 3.2485 11.9224 2.61035 11.1289C1.97353 10.337 1.32712 9.42542 0.837891 8.48535C0.351878 7.55136 0 6.5492 0 5.58691C2.2311e-05 2.5095 2.45436 0 5.5 0C8.54564 0 11 2.5095 11 5.58691ZM7.59766 5.375C7.59766 6.54044 6.66636 7.5 5.5 7.5C4.33374 7.49989 3.40332 6.54037 3.40332 5.375C3.40338 4.20967 4.33377 3.25011 5.5 3.25C6.66632 3.25 7.5976 4.2096 7.59766 5.375Z" fill="#FF5B04"/>
</svg>
