<svg width="20" height="21" viewBox="0 0 20 21" fill="none" xmlns="http://www.w3.org/2000/svg">
<path d="M2.83382 9.5C2.83382 5.08172 6.41524 1.5 10.8331 1.5C15.251 1.5 18.8325 5.08172 18.8325 9.5C18.8325 10.65 18.5898 11.7434 18.153 12.7316L18.834 17.4992L14.7486 16.4778C13.5912 17.1287 12.2555 17.5 10.8331 17.5M0.834932 14.5C0.834932 15.2188 0.986568 15.9021 1.25959 16.5198L0.833984 19.4995L3.38713 18.8611C4.11041 19.268 4.94513 19.5 5.83404 19.5C8.59497 19.5 10.8331 17.2614 10.8331 14.5C10.8331 11.7386 8.59497 9.5 5.83404 9.5C3.07311 9.5 0.834932 11.7386 0.834932 14.5Z" stroke="#FF5B04" stroke-width="1.5" stroke-linecap="round" stroke-linejoin="round"/>
</svg>
