<svg width="24" height="24" viewBox="0 0 24 24" fill="none" xmlns="http://www.w3.org/2000/svg">
<rect x="0.5" y="0.5" width="23" height="23" rx="11.5" stroke="#FF5B04"/>
<path d="M12.1319 14.5273C12.1319 13.0594 10.9421 11.8693 9.47469 11.8691C8.00717 11.8691 6.81746 13.0593 6.81746 14.5273C6.81752 14.9102 6.89827 15.2731 7.04305 15.6006C7.08077 15.6861 7.09333 15.7805 7.08016 15.873L6.91609 17.0186L7.8077 16.7959C7.93159 16.7649 8.06259 16.7831 8.17391 16.8457C8.55783 17.0617 9.00135 17.1846 9.47469 17.1846C10.9419 17.1844 12.1317 15.9951 12.1319 14.5273ZM13.1319 14.5273C13.1319 15.0183 13.0339 15.4863 12.8585 15.9141C13.5836 15.8785 14.2632 15.6752 14.8595 15.3398C14.9707 15.2773 15.1018 15.2601 15.2257 15.291L17.0841 15.7559L16.7598 13.4805C16.7467 13.3879 16.7601 13.2936 16.7979 13.208C17.0462 12.6464 17.1837 12.0245 17.1837 11.3691C17.1837 8.85481 15.1459 6.8165 12.6319 6.81641C10.1937 6.81641 8.20204 8.73337 8.08406 11.1426C8.51269 10.9662 8.98247 10.8691 9.47469 10.8691C11.4945 10.8693 13.1319 12.5073 13.1319 14.5273ZM18.1837 11.3691C18.1837 12.1131 18.0349 12.823 17.7686 13.4727L18.1798 16.3506C18.2033 16.5154 18.1432 16.6815 18.0196 16.793C17.896 16.9042 17.7249 16.9466 17.5636 16.9062L15.1671 16.3066C14.4063 16.6981 13.545 16.9218 12.6319 16.9219C12.5162 16.9219 12.411 16.8804 12.3263 16.8145C11.656 17.6492 10.6285 18.1845 9.47469 18.1846C8.89811 18.1846 8.35134 18.051 7.86531 17.8125L6.43758 18.1699C6.27615 18.2102 6.10509 18.1671 5.98152 18.0557C5.8581 17.9443 5.79801 17.7789 5.82137 17.6143L6.07137 15.8662C5.90786 15.4509 5.81751 14.9993 5.81746 14.5273C5.81746 13.3736 6.35122 12.3443 7.18563 11.6738C7.12011 11.5893 7.0792 11.4844 7.07918 11.3691C7.07918 8.30255 9.56548 5.81641 12.6319 5.81641C15.6983 5.8165 18.1837 8.3026 18.1837 11.3691Z" fill="#FF5B04"/>
</svg>
