<svg width="21" height="21" viewBox="0 0 21 21" fill="none" xmlns="http://www.w3.org/2000/svg">
<path d="M1.9256 16.5198C1.65258 15.9021 1.50095 15.2188 1.50095 14.5C1.50095 11.7386 3.73912 9.5 6.50005 9.5C9.26098 9.5 11.4992 11.7386 11.4992 14.5C11.4992 17.2614 9.26098 19.5 6.50005 19.5C5.61115 19.5 4.77643 19.268 4.05315 18.8611L1.5 19.4995L1.9256 16.5198Z" fill="#FF5B04"/>
<path d="M3.49983 9.5C3.49983 5.08172 7.08125 1.5 11.4992 1.5C15.9171 1.5 19.4985 5.08172 19.4985 9.5C19.4985 10.65 19.2558 11.7434 18.819 12.7316L19.5 17.4992L15.4146 16.4778C14.2572 17.1287 12.9215 17.5 11.4992 17.5M1.50095 14.5C1.50095 15.2188 1.65258 15.9021 1.9256 16.5198L1.5 19.4995L4.05315 18.8611C4.77643 19.268 5.61115 19.5 6.50005 19.5C9.26098 19.5 11.4992 17.2614 11.4992 14.5C11.4992 11.7386 9.26098 9.5 6.50005 9.5C3.73912 9.5 1.50095 11.7386 1.50095 14.5Z" stroke="#FF5B04" stroke-width="1.5" stroke-linecap="round" stroke-linejoin="round"/>
</svg>
