<svg width="15" height="15" viewBox="0 0 15 15" fill="none" xmlns="http://www.w3.org/2000/svg">
<path d="M7.14684 0.728892C7.2905 0.423703 7.70559 0.423703 7.84925 0.728892L9.70896 4.67961C9.76601 4.8008 9.87628 4.8848 10.0038 4.90423L14.1623 5.53776C14.4835 5.5867 14.6118 6.00059 14.3793 6.23815L11.3703 9.31335C11.278 9.40768 11.2358 9.5436 11.2576 9.6768L11.968 14.0191C12.0229 14.3545 11.687 14.6103 11.3997 14.4519L7.6803 12.4018C7.5662 12.3389 7.42989 12.3389 7.3158 12.4018L3.59637 14.4519C3.30905 14.6103 2.97324 14.3545 3.02811 14.0191L3.73846 9.6768C3.76025 9.5436 3.71813 9.40768 3.62582 9.31335L0.616747 6.23815C0.384299 6.00059 0.512567 5.5867 0.833803 5.53776L4.99225 4.90423C5.11981 4.8848 5.23008 4.8008 5.28713 4.67961L7.14684 0.728892Z" stroke="#FF5B04" stroke-linejoin="round"/>
</svg>
