<svg width="33" height="35" viewBox="0 0 33 35" fill="none" xmlns="http://www.w3.org/2000/svg">
<path d="M23.4381 8.07037C22.9614 7.21458 21.8816 6.90738 21.0258 7.38393L2.50792 17.6975L9.85396 30.8752C10.4798 31.9984 11.8987 32.4024 13.022 31.7767L29.0154 22.8691C30.1386 22.2434 30.5419 20.8258 29.9166 19.7024L23.4381 8.07037ZM20.7819 16.3348C20.9333 15.804 21.4863 15.4957 22.0173 15.6468C22.5485 15.7979 22.857 16.3518 22.7058 16.883L22.6967 16.9127C22.5453 17.4436 21.9923 17.7519 21.4613 17.6008C20.9303 17.4496 20.6224 16.8964 20.7732 16.3654L20.7819 16.3348ZM12.5149 4.47603C11.3257 5.94726 9.74261 7.91177 8.16386 9.88393C6.97624 11.3675 5.79525 12.8559 4.78531 14.1399L16.1494 7.81057L13.5678 3.17534C13.2721 3.5405 12.9157 3.98028 12.5149 4.47603ZM31.6638 18.7292C32.8267 20.8176 32.0768 23.4532 29.9886 24.6164L13.9952 33.524C11.9068 34.6871 9.27046 33.9374 8.10716 31.8492L0.280715 17.809L0.233565 17.7123C0.200984 17.6349 0.184736 17.5602 0.1731 17.4933L0.170541 17.4948C0.169395 17.4881 0.170202 17.481 0.169191 17.4743C0.161775 17.4263 0.15827 17.3827 0.157291 17.3445C0.157182 17.3399 0.156278 17.3353 0.156233 17.3306C0.155673 17.2835 0.156916 17.2461 0.159246 17.2216C0.160612 17.2073 0.164292 17.1932 0.166126 17.1798C0.166701 17.1756 0.167574 17.1716 0.168199 17.1674C0.180142 17.0872 0.196735 17.0238 0.208321 16.9886C0.237278 16.9007 0.27354 16.8297 0.29272 16.7929C0.335448 16.7111 0.387868 16.6263 0.435502 16.5536C0.53539 16.401 0.677485 16.2019 0.846728 15.9713C1.18853 15.5055 1.6798 14.8621 2.26667 14.1074C3.44218 12.5955 5.02178 10.6089 6.60259 8.63412C8.18405 6.65856 9.76905 4.69115 10.9594 3.21853C11.5546 2.48225 12.0517 1.8696 12.3994 1.44069C12.573 1.22647 12.7098 1.058 12.803 0.943143C12.8496 0.885711 12.8854 0.840877 12.9095 0.811185C12.9214 0.796515 12.9308 0.785588 12.9369 0.778052C12.9399 0.774274 12.9428 0.771324 12.9444 0.769413L12.9456 0.767609L12.946 0.766281L13.0298 0.675987C13.2364 0.477468 13.5203 0.375127 13.8097 0.400367C14.1401 0.429298 14.4343 0.620707 14.5957 0.910497L17.8967 6.83742L20.0527 5.63666C21.8735 4.62265 24.1712 5.27643 25.1853 7.09721L31.6638 18.7292Z" fill="#FF5B04"/>
</svg>
